# xmcd CD database file
#
# Track frame offsets:
#	150
#	24026
#	45488
#
# Disc length: 923 seconds
#
# Revision: 0
# Processed by: cddbd v1.5.1PL0 Copyright (c) Steve Scherf et al.
# Submitted via: CDex 1.51
#
DISCID=13039903
DTITLE=TiA - 流星
DYEAR=2004
DGENRE=Anime
TTITLE0=流星
TTITLE1=Missing You
TTITLE2=流星 (Instrumental)
EXTD=YEAR: 20040804
EXTT0=
EXTT1=
EXTT2=
PLAYORDER=
